<svg width="1920" height="1024" viewBox="0 0 1920 1024" fill="none" xmlns="http://www.w3.org/2000/svg">
<g clip-path="url(#clip0_63_467)">
<rect width="1920" height="1024" fill="white"/>
<path opacity="0.6" d="M1919.81 448.716C1873.53 480.02 1842.78 535.339 1842.78 598.362C1842.78 661.386 1873.53 716.704 1919.81 748.008V924.724C1787.66 883.899 1691 753.239 1691 598.362C1691 443.485 1787.66 312.825 1919.81 272V448.716Z" fill="url(#paint0_linear_63_467)" fill-opacity="0.6"/>
<path opacity="0.6" d="M0 78.001C95.9887 78.3787 173.694 161.955 173.694 265C173.694 368.045 95.9887 451.621 0 451.999V362.349C49.8274 361.972 90.1123 318.533 90.1123 265C90.1123 211.467 49.8273 168.028 0 167.651V78.001Z" fill="url(#paint1_linear_63_467)" fill-opacity="0.6"/>
<path opacity="0.6" d="M509 959.693C509.408 855.968 599.721 772 711.071 772C822.421 772 912.736 855.968 913.144 959.693H816.266C815.859 905.85 768.919 862.318 711.071 862.318C653.224 862.319 606.284 905.85 605.877 959.693H509Z" fill="url(#paint2_linear_63_467)" fill-opacity="0.6"/>
<circle opacity="0.6" cx="244" cy="768" r="157" fill="url(#paint3_radial_63_467)" fill-opacity="0.5"/>
<circle opacity="0.6" cx="1660" cy="52" r="111" fill="url(#paint4_radial_63_467)" fill-opacity="0.5"/>
<g opacity="0.6">
<line x1="310.826" y1="111" x2="310.826" y2="184.245" stroke="#FF5E6E" stroke-width="2"/>
<line x1="274" y1="146.622" x2="347.245" y2="146.622" stroke="#FF5E6E" stroke-width="2"/>
<line x1="285.434" y1="121.02" x2="337.225" y2="172.812" stroke="#FF5E6E" stroke-width="2"/>
<line x1="284.439" y1="172.812" x2="336.231" y2="121.02" stroke="#FF5E6E" stroke-width="2"/>
</g>
<g opacity="0.6">
<line x1="1563.83" y1="887" x2="1563.83" y2="960.245" stroke="#FF5E6E" stroke-width="2"/>
<line x1="1527" y1="922.622" x2="1600.24" y2="922.622" stroke="#FF5E6E" stroke-width="2"/>
<line x1="1538.43" y1="897.02" x2="1590.23" y2="948.812" stroke="#FF5E6E" stroke-width="2"/>
<line x1="1537.44" y1="948.812" x2="1589.23" y2="897.02" stroke="#FF5E6E" stroke-width="2"/>
<line x1="1423.39" y1="224.925" x2="1423.39" y2="271.845" stroke="#FF5E6E" stroke-width="2"/>
<line x1="1395" y1="247.385" x2="1451" y2="247.385" stroke="#FF5E6E" stroke-width="2"/>
<line y1="-1" x2="51.6599" y2="-1" transform="matrix(0.766513 0.642228 -0.766513 0.642228 1403.2 231.797)" stroke="#FF5E6E" stroke-width="2"/>
<line y1="-1" x2="51.6599" y2="-1" transform="matrix(0.766513 -0.642228 0.766513 0.642228 1403.52 264.974)" stroke="#FF5E6E" stroke-width="2"/>
<line x1="1833.39" y1="201" x2="1833.39" y2="247.92" stroke="#FF5E6E" stroke-width="2"/>
<line x1="1805" y1="223.46" x2="1861" y2="223.46" stroke="#FF5E6E" stroke-width="2"/>
<line y1="-1" x2="51.6599" y2="-1" transform="matrix(0.766513 0.642228 -0.766513 0.642228 1813.2 207.872)" stroke="#FF5E6E" stroke-width="2"/>
<line y1="-1" x2="51.6599" y2="-1" transform="matrix(0.766513 -0.642228 0.766513 0.642228 1813.52 241.049)" stroke="#FF5E6E" stroke-width="2"/>
<line x1="567.391" y1="668" x2="567.391" y2="714.92" stroke="#FF5E6E" stroke-width="2"/>
<line x1="539" y1="690.46" x2="595" y2="690.46" stroke="#FF5E6E" stroke-width="2"/>
<line y1="-1" x2="51.6599" y2="-1" transform="matrix(0.766513 0.642228 -0.766513 0.642228 547.201 674.872)" stroke="#FF5E6E" stroke-width="2"/>
<line y1="-1" x2="51.6599" y2="-1" transform="matrix(0.766513 -0.642228 0.766513 0.642228 547.522 708.049)" stroke="#FF5E6E" stroke-width="2"/>
</g>
<g opacity="0.6" filter="url(#filter0_d_63_467)">
<ellipse cx="553" cy="26" rx="83" ry="85" fill="#19C9B4" fill-opacity="0.5" shape-rendering="crispEdges"/>
</g>
<path opacity="0.6" d="M1499 342C1509.49 342 1518 350.507 1518 361C1518 371.493 1509.49 380 1499 380C1488.51 380 1480 371.493 1480 361C1480 350.507 1488.51 342 1499 342ZM1499.28 349.94C1493.02 349.941 1487.94 355.019 1487.94 361.283C1487.94 367.548 1493.02 372.627 1499.28 372.627C1505.55 372.627 1510.63 367.548 1510.63 361.283C1510.63 355.019 1505.55 349.94 1499.28 349.94Z" fill="#0064E1"/>
<path opacity="0.6" d="M1252.5 960C1258.85 960 1264 965.149 1264 971.5C1264 977.851 1258.85 983 1252.5 983C1246.15 983 1241 977.851 1241 971.5C1241 965.149 1246.15 960 1252.5 960ZM1252.67 964.806C1248.88 964.806 1245.81 967.88 1245.81 971.672C1245.81 975.464 1248.88 978.537 1252.67 978.537C1256.46 978.537 1259.54 975.464 1259.54 971.672C1259.54 967.88 1256.46 964.806 1252.67 964.806Z" fill="#0064E1"/>
<path opacity="0.6" d="M437.5 512C444.404 512 450 517.596 450 524.5C450 531.404 444.404 537 437.5 537C430.596 537 425 531.404 425 524.5C425 517.596 430.596 512 437.5 512ZM437.687 517.224C433.565 517.224 430.224 520.565 430.224 524.687C430.224 528.808 433.565 532.149 437.687 532.149C441.808 532.149 445.149 528.808 445.149 524.687C445.149 520.565 441.808 517.224 437.687 517.224Z" fill="#0064E1"/>
<g opacity="0.6">
<line x1="747" y1="124" x2="747" y2="152" stroke="#848FA5" stroke-width="2"/>
<line x1="733" y1="137" x2="761" y2="137" stroke="#848FA5" stroke-width="2"/>
</g>
<g opacity="0.6">
<line x1="993" y1="338" x2="993" y2="366" stroke="#848FA5" stroke-width="2"/>
<line x1="979" y1="351" x2="1007" y2="351" stroke="#848FA5" stroke-width="2"/>
</g>
<line x1="943" y1="731" x2="943" y2="759" stroke="#848FA5" stroke-width="2"/>
<line opacity="0.6" x1="929" y1="744" x2="957" y2="744" stroke="#848FA5" stroke-width="2"/>
<line x1="1576" y1="731" x2="1576" y2="759" stroke="#848FA5" stroke-width="2"/>
<line opacity="0.6" x1="1562" y1="744" x2="1590" y2="744" stroke="#848FA5" stroke-width="2"/>
<g opacity="0.6">
<line x1="668" y1="485" x2="668" y2="513" stroke="#848FA5" stroke-width="2"/>
<line x1="654" y1="498" x2="682" y2="498" stroke="#848FA5" stroke-width="2"/>
</g>
<g opacity="0.7">
<path d="M764.678 293.121C765.849 291.95 767.749 291.95 768.92 293.121L784.477 308.678C785.648 309.849 785.648 311.749 784.477 312.92L768.92 328.477C767.749 329.648 765.849 329.648 764.678 328.477L749.121 312.92C747.95 311.749 747.95 309.849 749.121 308.678L764.678 293.121ZM750.536 308.678C749.364 309.849 749.364 311.749 750.536 312.92L764.678 327.062C765.849 328.234 767.749 328.234 768.92 327.062L783.062 312.92C784.234 311.749 784.234 309.849 783.062 308.678L768.92 294.536C767.749 293.364 765.849 293.364 764.678 294.536L750.536 308.678Z" fill="#19C9B4"/>
<path d="M764.678 309.92C765.849 308.749 767.749 308.749 768.92 309.92L784.477 325.477C785.648 326.648 785.648 328.548 784.477 329.719L768.92 345.276C767.749 346.447 765.849 346.447 764.678 345.276L749.121 329.719C747.95 328.548 747.95 326.648 749.121 325.477L764.678 309.92ZM750.536 325.477C749.364 326.648 749.364 328.548 750.536 329.719L764.678 343.862C765.849 345.033 767.749 345.033 768.92 343.862L783.062 329.719C784.234 328.548 784.234 326.648 783.062 325.477L768.92 311.335C767.749 310.163 765.849 310.163 764.678 311.335L750.536 325.477Z" fill="#19C9B4"/>
</g>
<g opacity="0.7">
<path d="M984.678 585.121C985.849 583.95 987.749 583.95 988.92 585.121L1004.48 600.678C1005.65 601.849 1005.65 603.749 1004.48 604.92L988.92 620.477C987.749 621.648 985.849 621.648 984.678 620.477L969.121 604.92C967.95 603.749 967.95 601.849 969.121 600.678L984.678 585.121ZM970.536 600.678C969.364 601.849 969.364 603.749 970.536 604.92L984.678 619.062C985.849 620.234 987.749 620.234 988.92 619.062L1003.06 604.92C1004.23 603.749 1004.23 601.849 1003.06 600.678L988.92 586.536C987.749 585.364 985.849 585.364 984.678 586.536L970.536 600.678Z" fill="#19C9B4"/>
<path d="M984.678 601.92C985.849 600.749 987.749 600.749 988.92 601.92L1004.48 617.477C1005.65 618.648 1005.65 620.548 1004.48 621.719L988.92 637.276C987.749 638.447 985.849 638.447 984.678 637.276L969.121 621.719C967.95 620.548 967.95 618.648 969.121 617.477L984.678 601.92ZM970.536 617.477C969.364 618.648 969.364 620.548 970.536 621.719L984.678 635.862C985.849 637.033 987.749 637.033 988.92 635.862L1003.06 621.719C1004.23 620.548 1004.23 618.648 1003.06 617.477L988.92 603.335C987.749 602.163 985.849 602.163 984.678 603.335L970.536 617.477Z" fill="#19C9B4"/>
</g>
<g opacity="0.7">
<path d="M1357.68 637.121C1358.85 635.95 1360.75 635.95 1361.92 637.121L1377.48 652.678C1378.65 653.849 1378.65 655.749 1377.48 656.92L1361.92 672.477C1360.75 673.648 1358.85 673.648 1357.68 672.477L1342.12 656.92C1340.95 655.749 1340.95 653.849 1342.12 652.678L1357.68 637.121ZM1343.54 652.678C1342.36 653.849 1342.36 655.749 1343.54 656.92L1357.68 671.062C1358.85 672.234 1360.75 672.234 1361.92 671.062L1376.06 656.92C1377.23 655.749 1377.23 653.849 1376.06 652.678L1361.92 638.535C1360.75 637.364 1358.85 637.364 1357.68 638.535L1343.54 652.678Z" fill="#19C9B4"/>
<path d="M1357.68 653.92C1358.85 652.749 1360.75 652.749 1361.92 653.92L1377.48 669.477C1378.65 670.648 1378.65 672.548 1377.48 673.719L1361.92 689.276C1360.75 690.447 1358.85 690.447 1357.68 689.276L1342.12 673.719C1340.95 672.548 1340.95 670.648 1342.12 669.477L1357.68 653.92ZM1343.54 669.477C1342.36 670.648 1342.36 672.548 1343.54 673.719L1357.68 687.861C1358.85 689.033 1360.75 689.033 1361.92 687.861L1376.06 673.719C1377.23 672.548 1377.23 670.648 1376.06 669.477L1361.92 655.335C1360.75 654.163 1358.85 654.163 1357.68 655.335L1343.54 669.477Z" fill="#19C9B4"/>
<g opacity="0.7">
<path d="M1112.68 838.121C1113.85 836.95 1115.75 836.95 1116.92 838.121L1132.48 853.678C1133.65 854.849 1133.65 856.749 1132.48 857.92L1116.92 873.477C1115.75 874.648 1113.85 874.648 1112.68 873.477L1097.12 857.92C1095.95 856.749 1095.95 854.849 1097.12 853.678L1112.68 838.121ZM1098.54 853.678C1097.36 854.849 1097.36 856.749 1098.54 857.92L1112.68 872.062C1113.85 873.234 1115.75 873.234 1116.92 872.062L1131.06 857.92C1132.23 856.749 1132.23 854.849 1131.06 853.678L1116.92 839.536C1115.75 838.364 1113.85 838.364 1112.68 839.536L1098.54 853.678Z" fill="#19C9B4"/>
<path d="M1281.68 475.121C1282.85 473.95 1284.75 473.95 1285.92 475.121L1301.48 490.678C1302.65 491.849 1302.65 493.749 1301.48 494.92L1285.92 510.477C1284.75 511.648 1282.85 511.648 1281.68 510.477L1266.12 494.92C1264.95 493.749 1264.95 491.849 1266.12 490.678L1281.68 475.121ZM1267.54 490.678C1266.36 491.849 1266.36 493.749 1267.54 494.92L1281.68 509.062C1282.85 510.234 1284.75 510.234 1285.92 509.062L1300.06 494.92C1301.23 493.749 1301.23 491.849 1300.06 490.678L1285.92 476.535C1284.75 475.364 1282.85 475.364 1281.68 476.535L1267.54 490.678Z" fill="#19C9B4"/>
<g opacity="0.7">
<path d="M1357.68 72.1213C1358.85 70.9498 1360.75 70.9498 1361.92 72.1213L1377.48 87.6777C1378.65 88.8492 1378.65 90.7487 1377.48 91.9203L1361.92 107.477C1360.75 108.648 1358.85 108.648 1357.68 107.477L1342.12 91.9203C1340.95 90.7487 1340.95 88.8492 1342.12 87.6777L1357.68 72.1213ZM1343.54 87.6777C1342.36 88.8492 1342.36 90.7487 1343.54 91.9203L1357.68 106.062C1358.85 107.234 1360.75 107.234 1361.92 106.062L1376.06 91.9203C1377.23 90.7487 1377.23 88.8492 1376.06 87.6777L1361.92 73.5355C1360.75 72.364 1358.85 72.364 1357.68 73.5355L1343.54 87.6777Z" fill="#19C9B4"/>
<path d="M1357.68 88.9204C1358.85 87.7488 1360.75 87.7488 1361.92 88.9204L1377.48 104.477C1378.65 105.648 1378.65 107.548 1377.48 108.719L1361.92 124.276C1360.75 125.447 1358.85 125.447 1357.68 124.276L1342.12 108.719C1340.95 107.548 1340.95 105.648 1342.12 104.477L1357.68 88.9204ZM1343.54 104.477C1342.36 105.648 1342.36 107.548 1343.54 108.719L1357.68 122.862C1358.85 124.033 1360.75 124.033 1361.92 122.862L1376.06 108.719C1377.23 107.548 1377.23 105.648 1376.06 104.477L1361.92 90.3346C1360.75 89.163 1358.85 89.163 1357.68 90.3346L1343.54 104.477Z" fill="#19C9B4"/>
</g>
</g>
</g>
</g>
<defs>
<filter id="filter0_d_63_467" x="445" y="-80" width="216" height="220" filterUnits="userSpaceOnUse" color-interpolation-filters="sRGB">
<feFlood flood-opacity="0" result="BackgroundImageFix"/>
<feColorMatrix in="SourceAlpha" type="matrix" values="0 0 0 0 0 0 0 0 0 0 0 0 0 0 0 0 0 0 127 0" result="hardAlpha"/>
<feMorphology radius="5" operator="dilate" in="SourceAlpha" result="effect1_dropShadow_63_467"/>
<feOffset dy="4"/>
<feGaussianBlur stdDeviation="10"/>
<feComposite in2="hardAlpha" operator="out"/>
<feColorMatrix type="matrix" values="0 0 0 0 0.538462 0 0 0 0 0.704503 0 0 0 0 1 0 0 0 1 0"/>
<feBlend mode="normal" in2="BackgroundImageFix" result="effect1_dropShadow_63_467"/>
<feBlend mode="normal" in="SourceGraphic" in2="effect1_dropShadow_63_467" result="shape"/>
</filter>
<linearGradient id="paint0_linear_63_467" x1="1899.84" y1="428.546" x2="1786.58" y2="750.757" gradientUnits="userSpaceOnUse">
<stop stop-color="#19C9B4"/>
<stop offset="1" stop-color="#00A878"/>
</linearGradient>
<linearGradient id="paint1_linear_63_467" x1="-60" y1="171.489" x2="-122.364" y2="348.919" gradientUnits="userSpaceOnUse">
<stop stop-color="#15E8BE"/>
<stop offset="0.307692" stop-color="#19C9B4"/>
<stop offset="0.514423" stop-color="#00A878"/>
<stop offset="0.927885" stop-color="white"/>
</linearGradient>
<linearGradient id="paint2_linear_63_467" x1="610.024" y1="1024.53" x2="801.755" y2="1091.92" gradientUnits="userSpaceOnUse">
<stop stop-color="#FF0000"/>
<stop offset="0.240385" stop-color="#FF5E6E"/>
<stop offset="0.725962" stop-color="#F9A5A5"/>
<stop offset="0.975962" stop-color="#BF1A2F"/>
</linearGradient>
<radialGradient id="paint3_radial_63_467" cx="0" cy="0" r="1" gradientUnits="userSpaceOnUse" gradientTransform="translate(291 703.5) rotate(128.596) scale(209.195 225.099)">
<stop offset="0.341346" stop-color="#0082FB"/>
<stop offset="1" stop-color="white"/>
</radialGradient>
<radialGradient id="paint4_radial_63_467" cx="0" cy="0" r="1" gradientUnits="userSpaceOnUse" gradientTransform="translate(1679.09 24.4268) rotate(93.6806) scale(121.148 130.358)">
<stop offset="0.341346" stop-color="#0082FB"/>
<stop offset="1" stop-color="#377ABC"/>
</radialGradient>
<clipPath id="clip0_63_467">
<rect width="1920" height="1024" fill="white"/>
</clipPath>
</defs>
</svg>
