<svg width="1920" height="1409" viewBox="0 0 1920 1409" fill="none" xmlns="http://www.w3.org/2000/svg">
<rect width="1920" height="1409" fill="white"/>
<path opacity="0.5" d="M1919.81 653.716C1873.53 685.02 1842.78 740.339 1842.78 803.362C1842.78 866.386 1873.53 921.704 1919.81 953.008V1129.72C1787.66 1088.9 1691 958.239 1691 803.362C1691 648.485 1787.66 517.825 1919.81 477V653.716Z" fill="url(#paint0_linear_53_819)" fill-opacity="0.6"/>
<path opacity="0.5" d="M0 283.001C95.9887 283.379 173.694 366.955 173.694 470C173.694 573.045 95.9887 656.621 0 656.999V567.349C49.8274 566.972 90.1123 523.533 90.1123 470C90.1123 416.467 49.8273 373.028 0 372.651V283.001Z" fill="url(#paint1_linear_53_819)" fill-opacity="0.6"/>
<circle opacity="0.5" cx="244" cy="1162" r="157" fill="url(#paint2_radial_53_819)" fill-opacity="0.5"/>
<circle opacity="0.5" cx="1657" cy="329" r="111" fill="url(#paint3_radial_53_819)" fill-opacity="0.5"/>
<g opacity="0.5">
<line x1="310.826" y1="192" x2="310.826" y2="265.245" stroke="#FF5E6E" stroke-width="2"/>
<line x1="274" y1="227.622" x2="347.245" y2="227.622" stroke="#FF5E6E" stroke-width="2"/>
<line x1="285.434" y1="202.02" x2="337.225" y2="253.812" stroke="#FF5E6E" stroke-width="2"/>
<line x1="284.439" y1="253.812" x2="336.231" y2="202.02" stroke="#FF5E6E" stroke-width="2"/>
</g>
<g opacity="0.5">
<line x1="1582.83" y1="1246" x2="1582.83" y2="1319.24" stroke="#FF5E6E" stroke-width="2"/>
<line x1="1546" y1="1281.62" x2="1619.24" y2="1281.62" stroke="#FF5E6E" stroke-width="2"/>
<line x1="1557.43" y1="1256.02" x2="1609.23" y2="1307.81" stroke="#FF5E6E" stroke-width="2"/>
<line x1="1556.44" y1="1307.81" x2="1608.23" y2="1256.02" stroke="#FF5E6E" stroke-width="2"/>
<line x1="1460.39" y1="195" x2="1460.39" y2="241.92" stroke="#FF5E6E" stroke-width="2"/>
<line x1="1432" y1="217.46" x2="1488" y2="217.46" stroke="#FF5E6E" stroke-width="2"/>
<line y1="-1" x2="51.6599" y2="-1" transform="matrix(0.766513 0.642228 -0.766513 0.642228 1440.2 201.872)" stroke="#FF5E6E" stroke-width="2"/>
<line y1="-1" x2="51.6599" y2="-1" transform="matrix(0.766513 -0.642228 0.766513 0.642228 1440.52 235.049)" stroke="#FF5E6E" stroke-width="2"/>
<line x1="1675.39" y1="500" x2="1675.39" y2="546.92" stroke="#FF5E6E" stroke-width="2"/>
<line x1="1647" y1="522.46" x2="1703" y2="522.46" stroke="#FF5E6E" stroke-width="2"/>
<line y1="-1" x2="51.6599" y2="-1" transform="matrix(0.766513 0.642228 -0.766513 0.642228 1655.2 506.872)" stroke="#FF5E6E" stroke-width="2"/>
<line y1="-1" x2="51.6599" y2="-1" transform="matrix(0.766513 -0.642228 0.766513 0.642228 1655.52 540.049)" stroke="#FF5E6E" stroke-width="2"/>
<line x1="409.391" y1="967" x2="409.391" y2="1013.92" stroke="#FF5E6E" stroke-width="2"/>
<line x1="381" y1="989.46" x2="437" y2="989.46" stroke="#FF5E6E" stroke-width="2"/>
<line y1="-1" x2="51.6599" y2="-1" transform="matrix(0.766513 0.642228 -0.766513 0.642228 389.201 973.872)" stroke="#FF5E6E" stroke-width="2"/>
<line y1="-1" x2="51.6599" y2="-1" transform="matrix(0.766513 -0.642228 0.766513 0.642228 389.522 1007.05)" stroke="#FF5E6E" stroke-width="2"/>
</g>
<g opacity="0.5" filter="url(#filter0_d_53_819)">
<ellipse cx="484" cy="317" rx="83" ry="85" fill="#19C9B4" fill-opacity="0.5" shape-rendering="crispEdges"/>
</g>
<path opacity="0.5" d="M1499 547C1509.49 547 1518 555.507 1518 566C1518 576.493 1509.49 585 1499 585C1488.51 585 1480 576.493 1480 566C1480 555.507 1488.51 547 1499 547ZM1499.28 554.94C1493.02 554.941 1487.94 560.019 1487.94 566.283C1487.94 572.548 1493.02 577.627 1499.28 577.627C1505.55 577.627 1510.63 572.548 1510.63 566.283C1510.63 560.019 1505.55 554.94 1499.28 554.94Z" fill="#0064E1"/>
<path opacity="0.5" d="M1252.5 1165C1258.85 1165 1264 1170.15 1264 1176.5C1264 1182.85 1258.85 1188 1252.5 1188C1246.15 1188 1241 1182.85 1241 1176.5C1241 1170.15 1246.15 1165 1252.5 1165ZM1252.67 1169.81C1248.88 1169.81 1245.81 1172.88 1245.81 1176.67C1245.81 1180.46 1248.88 1183.54 1252.67 1183.54C1256.46 1183.54 1259.54 1180.46 1259.54 1176.67C1259.54 1172.88 1256.46 1169.81 1252.67 1169.81Z" fill="#0064E1"/>
<path opacity="0.5" d="M437.5 717C444.404 717 450 722.596 450 729.5C450 736.404 444.404 742 437.5 742C430.596 742 425 736.404 425 729.5C425 722.596 430.596 717 437.5 717ZM437.687 722.224C433.565 722.224 430.224 725.565 430.224 729.687C430.224 733.808 433.565 737.149 437.687 737.149C441.808 737.149 445.149 733.808 445.149 729.687C445.149 725.565 441.808 722.224 437.687 722.224Z" fill="#0064E1"/>
<g opacity="0.5">
<line x1="747" y1="329" x2="747" y2="357" stroke="#848FA5" stroke-width="2"/>
<line x1="733" y1="342" x2="761" y2="342" stroke="#848FA5" stroke-width="2"/>
</g>
<g opacity="0.5">
<line x1="993" y1="543" x2="993" y2="571" stroke="#848FA5" stroke-width="2"/>
<line x1="979" y1="556" x2="1007" y2="556" stroke="#848FA5" stroke-width="2"/>
</g>
<g opacity="0.5">
<line x1="943" y1="936" x2="943" y2="964" stroke="#848FA5" stroke-width="2"/>
<line opacity="0.6" x1="929" y1="949" x2="957" y2="949" stroke="#848FA5" stroke-width="2"/>
<line x1="1576" y1="936" x2="1576" y2="964" stroke="#848FA5" stroke-width="2"/>
<line opacity="0.6" x1="1562" y1="949" x2="1590" y2="949" stroke="#848FA5" stroke-width="2"/>
<g opacity="0.6">
<line x1="668" y1="690" x2="668" y2="718" stroke="#848FA5" stroke-width="2"/>
<line x1="654" y1="703" x2="682" y2="703" stroke="#848FA5" stroke-width="2"/>
</g>
</g>
<g opacity="0.5">
<path d="M764.678 498.121C765.849 496.95 767.749 496.95 768.92 498.121L784.477 513.678C785.648 514.849 785.648 516.749 784.477 517.92L768.92 533.477C767.749 534.648 765.849 534.648 764.678 533.477L749.121 517.92C747.95 516.749 747.95 514.849 749.121 513.678L764.678 498.121ZM750.536 513.678C749.364 514.849 749.364 516.749 750.536 517.92L764.678 532.062C765.849 533.234 767.749 533.234 768.92 532.062L783.062 517.92C784.234 516.749 784.234 514.849 783.062 513.678L768.92 499.535C767.749 498.364 765.849 498.364 764.678 499.535L750.536 513.678Z" fill="#19C9B4"/>
<path d="M764.678 514.92C765.849 513.749 767.749 513.749 768.92 514.92L784.477 530.477C785.648 531.648 785.648 533.548 784.477 534.719L768.92 550.276C767.749 551.447 765.849 551.447 764.678 550.276L749.121 534.719C747.95 533.548 747.95 531.648 749.121 530.477L764.678 514.92ZM750.536 530.477C749.364 531.648 749.364 533.548 750.536 534.719L764.678 548.861C765.849 550.033 767.749 550.033 768.92 548.861L783.062 534.719C784.234 533.548 784.234 531.648 783.062 530.477L768.92 516.335C767.749 515.163 765.849 515.163 764.678 516.335L750.536 530.477Z" fill="#19C9B4"/>
</g>
<g opacity="0.5">
<path d="M688.678 938.121C689.849 936.95 691.749 936.95 692.92 938.121L708.477 953.678C709.648 954.849 709.648 956.749 708.477 957.92L692.92 973.477C691.749 974.648 689.849 974.648 688.678 973.477L673.121 957.92C671.95 956.749 671.95 954.849 673.121 953.678L688.678 938.121ZM674.536 953.678C673.364 954.849 673.364 956.749 674.536 957.92L688.678 972.063C689.849 973.234 691.749 973.234 692.92 972.063L707.062 957.92C708.234 956.749 708.234 954.849 707.062 953.678L692.92 939.536C691.749 938.364 689.849 938.364 688.678 939.536L674.536 953.678Z" fill="#19C9B4"/>
<path d="M688.678 954.92C689.849 953.749 691.749 953.749 692.92 954.92L708.477 970.477C709.648 971.648 709.648 973.548 708.477 974.719L692.92 990.276C691.749 991.447 689.849 991.447 688.678 990.276L673.121 974.719C671.95 973.548 671.95 971.648 673.121 970.477L688.678 954.92ZM674.536 970.477C673.364 971.648 673.364 973.548 674.536 974.719L688.678 988.862C689.849 990.033 691.749 990.033 692.92 988.862L707.062 974.719C708.234 973.548 708.234 971.648 707.062 970.477L692.92 956.335C691.749 955.163 689.849 955.163 688.678 956.335L674.536 970.477Z" fill="#19C9B4"/>
</g>
<g opacity="0.5">
<path d="M1357.68 842.121C1358.85 840.95 1360.75 840.95 1361.92 842.121L1377.48 857.678C1378.65 858.849 1378.65 860.749 1377.48 861.92L1361.92 877.476C1360.75 878.648 1358.85 878.648 1357.68 877.476L1342.12 861.92C1340.95 860.749 1340.95 858.849 1342.12 857.678L1357.68 842.121ZM1343.54 857.678C1342.36 858.849 1342.36 860.749 1343.54 861.92L1357.68 876.062C1358.85 877.234 1360.75 877.234 1361.92 876.062L1376.06 861.92C1377.23 860.749 1377.23 858.849 1376.06 857.678L1361.92 843.535C1360.75 842.364 1358.85 842.364 1357.68 843.535L1343.54 857.678Z" fill="#19C9B4"/>
<path d="M1357.68 858.92C1358.85 857.749 1360.75 857.749 1361.92 858.92L1377.48 874.477C1378.65 875.648 1378.65 877.548 1377.48 878.719L1361.92 894.276C1360.75 895.447 1358.85 895.447 1357.68 894.276L1342.12 878.719C1340.95 877.548 1340.95 875.648 1342.12 874.477L1357.68 858.92ZM1343.54 874.477C1342.36 875.648 1342.36 877.548 1343.54 878.719L1357.68 892.862C1358.85 894.033 1360.75 894.033 1361.92 892.862L1376.06 878.719C1377.23 877.548 1377.23 875.648 1376.06 874.477L1361.92 860.335C1360.75 859.163 1358.85 859.163 1357.68 860.335L1343.54 874.477Z" fill="#19C9B4"/>
<g opacity="0.7">
<path d="M1039.68 1164.12C1040.85 1162.95 1042.75 1162.95 1043.92 1164.12L1059.48 1179.68C1060.65 1180.85 1060.65 1182.75 1059.48 1183.92L1043.92 1199.48C1042.75 1200.65 1040.85 1200.65 1039.68 1199.48L1024.12 1183.92C1022.95 1182.75 1022.95 1180.85 1024.12 1179.68L1039.68 1164.12ZM1025.54 1179.68C1024.36 1180.85 1024.36 1182.75 1025.54 1183.92L1039.68 1198.06C1040.85 1199.23 1042.75 1199.23 1043.92 1198.06L1058.06 1183.92C1059.23 1182.75 1059.23 1180.85 1058.06 1179.68L1043.92 1165.54C1042.75 1164.36 1040.85 1164.36 1039.68 1165.54L1025.54 1179.68Z" fill="#19C9B4"/>
<path d="M1039.68 1180.92C1040.85 1179.75 1042.75 1179.75 1043.92 1180.92L1059.48 1196.48C1060.65 1197.65 1060.65 1199.55 1059.48 1200.72L1043.92 1216.28C1042.75 1217.45 1040.85 1217.45 1039.68 1216.28L1024.12 1200.72C1022.95 1199.55 1022.95 1197.65 1024.12 1196.48L1039.68 1180.92ZM1025.54 1196.48C1024.36 1197.65 1024.36 1199.55 1025.54 1200.72L1039.68 1214.86C1040.85 1216.03 1042.75 1216.03 1043.92 1214.86L1058.06 1200.72C1059.23 1199.55 1059.23 1197.65 1058.06 1196.48L1043.92 1182.33C1042.75 1181.16 1040.85 1181.16 1039.68 1182.33L1025.54 1196.48Z" fill="#19C9B4"/>
<g opacity="0.7">
<path d="M1337.68 319.121C1338.85 317.95 1340.75 317.95 1341.92 319.121L1357.48 334.678C1358.65 335.849 1358.65 337.749 1357.48 338.92L1341.92 354.477C1340.75 355.648 1338.85 355.648 1337.68 354.477L1322.12 338.92C1320.95 337.749 1320.95 335.849 1322.12 334.678L1337.68 319.121ZM1323.54 334.678C1322.36 335.849 1322.36 337.749 1323.54 338.92L1337.68 353.062C1338.85 354.234 1340.75 354.234 1341.92 353.062L1356.06 338.92C1357.23 337.749 1357.23 335.849 1356.06 334.678L1341.92 320.535C1340.75 319.364 1338.85 319.364 1337.68 320.535L1323.54 334.678Z" fill="#19C9B4"/>
<path d="M1357.68 293.92C1358.85 292.749 1360.75 292.749 1361.92 293.92L1377.48 309.477C1378.65 310.648 1378.65 312.548 1377.48 313.719L1361.92 329.276C1360.75 330.447 1358.85 330.447 1357.68 329.276L1342.12 313.719C1340.95 312.548 1340.95 310.648 1342.12 309.477L1357.68 293.92ZM1343.54 309.477C1342.36 310.648 1342.36 312.548 1343.54 313.719L1357.68 327.861C1358.85 329.033 1360.75 329.033 1361.92 327.861L1376.06 313.719C1377.23 312.548 1377.23 310.648 1376.06 309.477L1361.92 295.335C1360.75 294.163 1358.85 294.163 1357.68 295.335L1343.54 309.477Z" fill="#19C9B4"/>
</g>
</g>
</g>
<defs>
<filter id="filter0_d_53_819" x="376" y="211" width="216" height="220" filterUnits="userSpaceOnUse" color-interpolation-filters="sRGB">
<feFlood flood-opacity="0" result="BackgroundImageFix"/>
<feColorMatrix in="SourceAlpha" type="matrix" values="0 0 0 0 0 0 0 0 0 0 0 0 0 0 0 0 0 0 127 0" result="hardAlpha"/>
<feMorphology radius="5" operator="dilate" in="SourceAlpha" result="effect1_dropShadow_53_819"/>
<feOffset dy="4"/>
<feGaussianBlur stdDeviation="10"/>
<feComposite in2="hardAlpha" operator="out"/>
<feColorMatrix type="matrix" values="0 0 0 0 0.538462 0 0 0 0 0.704503 0 0 0 0 1 0 0 0 1 0"/>
<feBlend mode="normal" in2="BackgroundImageFix" result="effect1_dropShadow_53_819"/>
<feBlend mode="normal" in="SourceGraphic" in2="effect1_dropShadow_53_819" result="shape"/>
</filter>
<linearGradient id="paint0_linear_53_819" x1="1899.84" y1="633.546" x2="1786.58" y2="955.757" gradientUnits="userSpaceOnUse">
<stop stop-color="#19C9B4"/>
<stop offset="1" stop-color="#00A878"/>
</linearGradient>
<linearGradient id="paint1_linear_53_819" x1="-60" y1="376.489" x2="-122.364" y2="553.919" gradientUnits="userSpaceOnUse">
<stop stop-color="#15E8BE"/>
<stop offset="0.307692" stop-color="#19C9B4"/>
<stop offset="0.514423" stop-color="#00A878"/>
<stop offset="0.927885" stop-color="white"/>
</linearGradient>
<radialGradient id="paint2_radial_53_819" cx="0" cy="0" r="1" gradientUnits="userSpaceOnUse" gradientTransform="translate(291 1097.5) rotate(128.596) scale(209.195 225.099)">
<stop offset="0.341346" stop-color="#0082FB"/>
<stop offset="1" stop-color="white"/>
</radialGradient>
<radialGradient id="paint3_radial_53_819" cx="0" cy="0" r="1" gradientUnits="userSpaceOnUse" gradientTransform="translate(1866 218) rotate(134.054) scale(284.305 305.919)">
<stop stop-color="white"/>
<stop offset="0.9375" stop-color="#377ABC"/>
</radialGradient>
</defs>
</svg>
