<svg width="605" height="608" viewBox="0 0 605 608" fill="none" xmlns="http://www.w3.org/2000/svg">
<path d="M110.702 541.283L107.028 526.769C100.513 524.004 93.8484 521.609 87.0646 519.596L86.6008 526.341L84.7202 518.91C76.3074 516.502 70.5834 515.443 70.5834 515.443C70.5834 515.443 78.3139 544.883 94.5313 567.391L113.426 570.715L98.747 572.835C100.787 575.293 102.979 577.62 105.31 579.802C128.899 601.728 155.172 611.789 163.994 602.27C172.815 592.75 160.843 567.264 137.254 545.339C129.944 538.541 120.756 533.087 111.56 528.792L110.702 541.283Z" fill="#FF5E6E"/>
<path d="M145.644 525.521L149.989 511.196C145.839 505.457 141.37 499.957 136.602 494.722L132.724 500.256L134.949 492.921C128.989 486.507 124.637 482.638 124.637 482.638C124.637 482.638 116.059 511.842 118.321 539.504L132.78 552.126L119.118 546.342C119.596 549.502 120.272 552.63 121.142 555.706C130.017 586.686 147.316 608.899 159.78 605.317C172.244 601.736 175.153 573.719 166.277 542.738C163.526 533.134 158.476 523.709 152.821 515.274L145.644 525.521Z" fill="#FF5E6E"/>
<path d="M452.922 143.974H449.597V52.7817C449.597 38.7835 444.045 25.3587 434.161 15.4603C424.277 5.56187 410.872 0.0006695 396.893 0H203.955C189.976 0 176.57 5.56091 166.686 15.4594C156.801 25.3579 151.248 38.7831 151.248 52.7817V553.081C151.248 560.012 152.612 566.876 155.26 573.28C157.909 579.683 161.791 585.502 166.686 590.403C171.58 595.305 177.39 599.192 183.785 601.845C190.18 604.497 197.033 605.863 203.955 605.863H396.893C410.872 605.862 424.278 600.302 434.162 590.403C444.046 580.505 449.599 567.08 449.599 553.082V208.887H452.923L452.922 143.974Z" fill="#181C31"/>
<path d="M399.018 13.727H373.835C374.993 16.5707 375.435 19.6558 375.122 22.7108C374.809 25.7657 373.751 28.6967 372.04 31.2455C370.329 33.7943 368.019 35.8826 365.312 37.3266C362.606 38.7706 359.586 39.5259 356.52 39.5259H245.989C242.922 39.526 239.902 38.7707 237.196 37.3267C234.489 35.8827 232.179 33.7942 230.468 31.2453C228.758 28.6963 227.699 25.7652 227.386 22.7101C227.073 19.655 227.516 16.5698 228.674 13.7262H205.153C194.714 13.7262 184.702 17.8791 177.32 25.2713C169.939 32.6634 165.792 42.6894 165.792 53.1435V552.717C165.792 563.171 169.939 573.197 177.32 580.589C184.702 587.981 194.714 592.134 205.153 592.134H399.018C409.457 592.134 419.469 587.981 426.85 580.589C434.232 573.197 438.379 563.171 438.379 552.717V53.1427C438.379 42.6888 434.232 32.6632 426.85 25.2713C419.469 17.8793 409.457 13.7264 399.019 13.7262L399.018 13.727Z" fill="white"/>
<path d="M277.382 212.73C277.381 209.238 278.299 205.807 280.044 202.783C281.789 199.759 284.298 197.248 287.32 195.504C284.3 193.758 280.875 192.839 277.389 192.838C273.902 192.838 270.477 193.757 267.457 195.503C264.438 197.248 261.93 199.759 260.187 202.783C258.444 205.807 257.526 209.237 257.526 212.728C257.526 216.22 258.444 219.65 260.187 222.674C261.93 225.697 264.438 228.208 267.457 229.954C270.477 231.7 273.902 232.619 277.389 232.618C280.875 232.618 284.3 231.699 287.32 229.953C284.299 228.209 281.79 225.699 280.046 222.676C278.302 219.652 277.384 216.222 277.385 212.73H277.382Z" fill="#CCCCCC"/>
<path d="M302.35 212.73C302.349 209.238 303.267 205.807 305.012 202.783C306.757 199.758 309.266 197.248 312.288 195.504C309.268 193.758 305.843 192.839 302.357 192.838C298.87 192.838 295.445 193.757 292.425 195.503C289.406 197.248 286.898 199.759 285.155 202.783C283.412 205.807 282.494 209.237 282.494 212.728C282.494 216.22 283.412 219.65 285.155 222.674C286.898 225.697 289.406 228.208 292.425 229.954C295.445 231.7 298.87 232.619 302.357 232.618C305.843 232.618 309.268 231.699 312.288 229.953C309.267 228.209 306.758 225.699 305.014 222.676C303.27 219.652 302.352 216.222 302.353 212.73H302.35Z" fill="#CCCCCC"/>
<path d="M326.752 232.62C337.721 232.62 346.614 223.715 346.614 212.73C346.614 201.746 337.721 192.84 326.752 192.84C315.783 192.84 306.891 201.746 306.891 212.73C306.891 223.715 315.783 232.62 326.752 232.62Z" fill="#17B8A6"/>
<path d="M359.946 274.855H244.186C243.084 274.854 242.028 274.415 241.249 273.634C240.469 272.854 240.031 271.796 240.03 270.692V154.769C240.032 153.666 240.471 152.608 241.25 151.829C242.029 151.049 243.085 150.611 244.186 150.609H359.946C361.048 150.611 362.104 151.05 362.883 151.83C363.663 152.61 364.101 153.668 364.102 154.772V270.688C364.101 271.792 363.663 272.85 362.883 273.63C362.104 274.41 361.048 274.849 359.946 274.851V274.855ZM244.186 152.272C243.525 152.273 242.891 152.536 242.424 153.004C241.956 153.472 241.693 154.107 241.692 154.77V270.693C241.693 271.355 241.956 271.99 242.424 272.458C242.891 272.927 243.525 273.19 244.186 273.191H359.946C360.607 273.19 361.241 272.927 361.708 272.458C362.176 271.99 362.439 271.355 362.44 270.693V154.77C362.439 154.107 362.176 153.472 361.708 153.004C361.241 152.536 360.607 152.273 359.946 152.272H244.186Z" fill="#CCCCCC"/>
<path d="M385.793 363.715H208.255V365.38H385.793V363.715Z" fill="#CCCCCC"/>
<path d="M213.862 353.318C216.958 353.318 219.468 350.804 219.468 347.703C219.468 344.603 216.958 342.089 213.862 342.089C210.765 342.089 208.255 344.603 208.255 347.703C208.255 350.804 210.765 353.318 213.862 353.318Z" fill="#17B8A6"/>
<path d="M385.793 419.859H208.255V421.524H385.793V419.859Z" fill="#CCCCCC"/>
<path d="M213.862 409.463C216.958 409.463 219.468 406.949 219.468 403.848C219.468 400.748 216.958 398.234 213.862 398.234C210.765 398.234 208.255 400.748 208.255 403.848C208.255 406.949 210.765 409.463 213.862 409.463Z" fill="#17B8A6"/>
<path d="M382.543 483.794H326.436C325.467 483.793 324.538 483.407 323.853 482.72C323.168 482.034 322.782 481.104 322.781 480.133V460.443C322.782 459.472 323.168 458.542 323.853 457.856C324.538 457.169 325.467 456.783 326.436 456.782H382.543C383.512 456.783 384.441 457.169 385.127 457.856C385.812 458.542 386.197 459.472 386.198 460.443V480.133C386.197 481.104 385.812 482.034 385.127 482.72C384.441 483.407 383.512 483.793 382.543 483.794Z" fill="#17B8A6"/>
<path d="M232.15 353.318C235.247 353.318 237.757 350.804 237.757 347.703C237.757 344.603 235.247 342.089 232.15 342.089C229.054 342.089 226.544 344.603 226.544 347.703C226.544 350.804 229.054 353.318 232.15 353.318Z" fill="#17B8A6"/>
<path d="M250.439 353.318C253.535 353.318 256.045 350.804 256.045 347.703C256.045 344.603 253.535 342.089 250.439 342.089C247.343 342.089 244.833 344.603 244.833 347.703C244.833 350.804 247.343 353.318 250.439 353.318Z" fill="#17B8A6"/>
<path d="M232.15 409.463C235.247 409.463 237.757 406.949 237.757 403.848C237.757 400.748 235.247 398.234 232.15 398.234C229.054 398.234 226.544 400.748 226.544 403.848C226.544 406.949 229.054 409.463 232.15 409.463Z" fill="#17B8A6"/>
<path d="M250.439 409.463C253.535 409.463 256.045 406.949 256.045 403.848C256.045 400.748 253.535 398.234 250.439 398.234C247.343 398.234 244.833 400.748 244.833 403.848C244.833 406.949 247.343 409.463 250.439 409.463Z" fill="#17B8A6"/>
<path d="M575.778 608H2.22209C0.994646 608 0 607.552 0 607C0 606.449 0.994646 606 2.22209 606H575.778C577.005 606 578 606.448 578 607C578 607.553 577.005 608 575.778 608Z" fill="#E6E6E6"/>
<path d="M525.806 381.106L511.689 409.091L469.489 428.305C464.982 435.933 450.659 436.517 449.617 431.587C448.448 426.053 467.011 417.146 467.011 417.146L502.313 393.235L505.402 372.65L525.806 381.106Z" fill="#FFB9B9"/>
<path d="M524.141 568.904L526.744 589.76L511.645 590.803L510.084 568.906L524.141 568.904Z" fill="#FFB9B9"/>
<path d="M522.059 586.631C523.409 585.202 524.654 583.677 525.785 582.069C527.949 579.07 529.869 594.452 529.869 594.452C529.869 594.452 531.952 600.708 531.431 603.837C530.91 606.966 518.936 606.966 516.853 606.446C514.77 605.926 504.358 606.446 504.358 606.446H488.739C475.202 600.189 488.739 596.018 488.739 596.018C492.904 595.496 506.961 582.462 506.961 582.462L510.085 576.727C512.167 576.206 514.25 584.026 514.25 584.026L522.059 586.631Z" fill="#090814"/>
<path d="M563.19 569.165L565.795 590.02L550.696 591.064L549.134 569.165H563.19Z" fill="#FFB9B9"/>
<path d="M561.106 586.892C562.455 585.463 563.701 583.938 564.832 582.33C566.995 579.331 568.915 594.713 568.915 594.713C568.915 594.713 570.998 600.449 570.477 603.576C569.957 606.704 557.983 606.704 555.899 606.185C553.816 605.666 543.405 606.707 543.405 606.707H527.785C514.249 600.45 527.785 596.279 527.785 596.279C531.951 595.757 546.008 582.723 546.008 582.723L549.132 576.988C551.214 576.466 553.297 584.287 553.297 584.287L561.106 586.892Z" fill="#090814"/>
<path d="M546.006 434.65C548.089 437.258 547.047 446.12 547.047 446.12C547.047 446.12 550.691 474.796 549.129 477.403C547.567 480.01 550.17 482.095 551.734 485.745C553.298 489.395 554.858 498.258 554.858 498.258C563.709 505.557 563.189 538.926 563.189 538.926L566.312 568.644C565.271 571.773 550.693 572.294 548.611 571.773C546.529 571.252 540.28 524.327 540.28 524.327L526.223 497.736C526.223 497.736 527.265 568.643 527.265 571.772C527.265 574.9 513.208 573.336 510.083 573.336C506.959 573.336 506.959 521.198 506.959 521.198L503.835 507.643L487.175 445.599V438.298L489.78 434.648C489.78 434.648 543.924 432.043 546.006 434.65Z" fill="#181C31"/>
<path d="M523.101 316.298C532.015 316.298 539.241 309.061 539.241 300.135C539.241 291.208 532.015 283.972 523.101 283.972C514.187 283.972 506.961 291.208 506.961 300.135C506.961 309.061 514.187 316.298 523.101 316.298Z" fill="#FFB9B9"/>
<path d="M515.031 307.694C518.302 314.989 516.365 325.179 509.821 336.369L536.374 323.857L532.209 320.207L533.25 309.78L515.031 307.694Z" fill="#FFB9B9"/>
<path d="M515.029 324.379C511.552 326.449 509.472 330.252 508.278 334.123C506.067 341.288 504.737 348.697 504.315 356.185L503.055 378.602L487.436 438.039C500.972 449.51 508.779 446.903 527.004 437.518C545.228 428.133 547.309 440.648 547.309 440.648C547.309 440.648 548.871 440.126 547.309 438.563C545.747 436.999 547.309 438.563 548.871 436.998C550.433 435.434 548.871 436.998 548.35 435.434C547.829 433.87 548.35 434.912 548.871 434.392C549.392 433.871 546.789 429.174 546.789 429.174L550.954 390.071L556.164 334.805C549.916 326.985 532.216 320.206 532.216 320.206L516.071 331.677C510.861 333.762 515.03 325.42 515.03 325.42L515.029 324.379Z" fill="#17B8A6"/>
<path d="M564.75 367.913L566.832 399.196L540.279 437.257C540.279 446.12 535.594 448.206 535.594 448.206C533.819 445.369 532.253 442.407 530.909 439.343C528.304 433.607 532.471 428.915 532.471 428.915L550.693 390.333L542.883 371.043L564.75 367.913Z" fill="#FFB9B9"/>
<path d="M555.903 335.067C564.754 338.196 566.316 372.085 566.316 372.085C555.903 366.35 543.408 375.735 543.408 375.735C543.408 375.735 540.803 366.871 537.681 355.401C536.738 352.175 536.625 348.762 537.353 345.48C538.081 342.198 539.627 339.154 541.846 336.631C541.846 336.631 547.049 331.939 555.903 335.067Z" fill="#17B8A6"/>
<path d="M537.937 305.087C535.883 303.441 533.08 306.433 533.08 306.433L531.436 291.618C531.436 291.618 521.163 292.853 514.588 291.207C508.013 289.561 506.986 297.174 506.986 297.174C506.647 294.1 506.578 291.003 506.78 287.917C507.191 284.215 512.533 280.512 521.985 278.041C531.436 275.569 536.367 286.271 536.367 286.271C542.939 289.561 539.992 306.734 537.937 305.087Z" fill="#181C31"/>
</svg>
